<svg xmlns="http://www.w3.org/2000/svg" xmlns:xlink="http://www.w3.org/1999/xlink" width="500" zoomAndPan="magnify" viewBox="0 0 375 374.999991" height="500" preserveAspectRatio="xMidYMid meet" version="1.0"><defs><g/><clipPath id="faf211d12a"><path d="M 272.226562 204.300781 L 291.828125 204.300781 L 291.828125 223.902344 L 272.226562 223.902344 Z M 272.226562 204.300781 " clip-rule="nonzero"/></clipPath><clipPath id="15b9d10ffe"><path d="M 282.027344 204.300781 C 276.613281 204.300781 272.226562 208.6875 272.226562 214.101562 C 272.226562 219.515625 276.613281 223.902344 282.027344 223.902344 C 287.441406 223.902344 291.828125 219.515625 291.828125 214.101562 C 291.828125 208.6875 287.441406 204.300781 282.027344 204.300781 Z M 282.027344 204.300781 " clip-rule="nonzero"/></clipPath></defs><g fill="#000000" fill-opacity="1"><g transform="translate(100.112465, 213.724716)"><g><path d="M 26.421875 0.671875 C 22.429688 0.671875 19.582031 -1.710938 17.875 -6.484375 L 17.875 0 L 2.90625 0 L 2.90625 -71.8125 L 17.875 -71.8125 L 17.875 -57.921875 C 20.195312 -60.304688 22.910156 -61.5 26.015625 -61.5 C 30.722656 -61.5 34.101562 -60.097656 36.15625 -57.296875 C 38.207031 -54.503906 39.234375 -50.476562 39.234375 -45.21875 L 39.234375 -15.875 C 39.234375 -10.882812 38.175781 -6.878906 36.0625 -3.859375 C 33.957031 -0.835938 30.742188 0.671875 26.421875 0.671875 Z M 21.53125 -10.640625 C 22.519531 -10.640625 23.222656 -10.957031 23.640625 -11.59375 C 24.054688 -12.226562 24.304688 -13.03125 24.390625 -14 C 24.472656 -14.96875 24.515625 -16.476562 24.515625 -18.53125 L 24.515625 -43.875 C 24.515625 -46.039062 24.320312 -47.648438 23.9375 -48.703125 C 23.550781 -49.753906 22.71875 -50.28125 21.4375 -50.28125 C 20.050781 -50.28125 19.109375 -49.753906 18.609375 -48.703125 C 18.117188 -47.648438 17.875 -46.097656 17.875 -44.046875 L 17.875 -18.53125 C 17.875 -15.875 18.09375 -13.894531 18.53125 -12.59375 C 18.976562 -11.289062 19.976562 -10.640625 21.53125 -10.640625 Z M 21.53125 -10.640625 "/></g></g></g><g fill="#000000" fill-opacity="1"><g transform="translate(137.17329, 213.724716)"><g><path d="M 20.609375 0.671875 C 8.472656 0.671875 2.40625 -5.617188 2.40625 -18.203125 L 2.40625 -42.640625 C 2.40625 -48.398438 4.023438 -52.984375 7.265625 -56.390625 C 10.515625 -59.796875 14.960938 -61.5 20.609375 -61.5 C 26.265625 -61.5 30.710938 -59.796875 33.953125 -56.390625 C 37.191406 -52.984375 38.8125 -48.398438 38.8125 -42.640625 L 38.8125 -18.203125 C 38.8125 -5.617188 32.742188 0.671875 20.609375 0.671875 Z M 20.609375 -10.5625 C 21.773438 -10.5625 22.632812 -10.972656 23.1875 -11.796875 C 23.738281 -12.628906 24.015625 -13.765625 24.015625 -15.203125 L 24.015625 -44.96875 C 24.015625 -48.507812 22.878906 -50.28125 20.609375 -50.28125 C 18.335938 -50.28125 17.203125 -48.507812 17.203125 -44.96875 L 17.203125 -15.203125 C 17.203125 -13.765625 17.476562 -12.628906 18.03125 -11.796875 C 18.582031 -10.972656 19.441406 -10.5625 20.609375 -10.5625 Z M 20.609375 -10.5625 "/></g></g></g><g fill="#000000" fill-opacity="1"><g transform="translate(173.901721, 213.724716)"><g><path d="M 13.96875 0.671875 C 9.25 0.671875 6.015625 -0.890625 4.265625 -4.015625 C 2.523438 -7.148438 1.65625 -11.628906 1.65625 -17.453125 C 1.65625 -22.210938 2.28125 -25.867188 3.53125 -28.421875 C 4.78125 -30.972656 6.507812 -32.84375 8.71875 -34.03125 C 10.9375 -35.21875 14.316406 -36.535156 18.859375 -37.984375 L 22.859375 -39.3125 L 22.859375 -45.546875 C 22.859375 -47.148438 22.535156 -48.378906 21.890625 -49.234375 C 21.253906 -50.097656 20.492188 -50.53125 19.609375 -50.53125 C 18.835938 -50.53125 18.160156 -50.171875 17.578125 -49.453125 C 16.992188 -48.734375 16.703125 -47.765625 16.703125 -46.546875 L 16.703125 -42.890625 L 2.578125 -42.890625 L 2.578125 -44.875 C 2.578125 -50.863281 3.972656 -55.128906 6.765625 -57.671875 C 9.566406 -60.222656 14.125 -61.5 20.4375 -61.5 C 25.488281 -61.5 29.59375 -60.179688 32.75 -57.546875 C 35.90625 -54.921875 37.484375 -51.195312 37.484375 -46.375 L 37.484375 0 L 23.015625 0 L 23.015625 -7.234375 C 22.296875 -4.734375 21.144531 -2.789062 19.5625 -1.40625 C 17.988281 -0.0195312 16.125 0.671875 13.96875 0.671875 Z M 19.703125 -10.640625 C 20.804688 -10.640625 21.59375 -11.09375 22.0625 -12 C 22.53125 -12.914062 22.765625 -14.039062 22.765625 -15.375 L 22.765625 -32.328125 C 20.609375 -31.492188 19.015625 -30.441406 17.984375 -29.171875 C 16.960938 -27.898438 16.453125 -26.128906 16.453125 -23.859375 L 16.453125 -16.046875 C 16.453125 -12.441406 17.535156 -10.640625 19.703125 -10.640625 Z M 19.703125 -10.640625 "/></g></g></g><g fill="#000000" fill-opacity="1"><g transform="translate(209.466797, 213.724716)"><g><path d="M 2.90625 -60.84375 L 17.453125 -60.84375 L 17.453125 -54.109375 C 18.171875 -56.484375 19.429688 -58.320312 21.234375 -59.625 C 23.035156 -60.925781 25.265625 -61.578125 27.921875 -61.578125 L 27.921875 -49.453125 C 25.867188 -49.453125 23.609375 -49.160156 21.140625 -48.578125 C 18.679688 -47.992188 17.453125 -47.316406 17.453125 -46.546875 L 17.453125 0 L 2.90625 0 Z M 2.90625 -60.84375 "/></g></g></g><g fill="#000000" fill-opacity="1"><g transform="translate(233.481284, 213.724716)"><g><path d="M 14.875 0.671875 C 11.332031 0.671875 8.660156 -0.171875 6.859375 -1.859375 C 5.054688 -3.554688 3.863281 -5.800781 3.28125 -8.59375 C 2.695312 -11.394531 2.40625 -14.984375 2.40625 -19.359375 L 2.578125 -46.796875 C 2.578125 -51.109375 3.671875 -54.632812 5.859375 -57.375 C 8.046875 -60.125 11.132812 -61.5 15.125 -61.5 C 19.0625 -61.5 22 -60.195312 23.9375 -57.59375 L 23.9375 -71.8125 L 38.484375 -71.8125 L 38.484375 0 L 23.9375 0 L 23.9375 -6.484375 C 23.101562 -4.097656 21.976562 -2.304688 20.5625 -1.109375 C 19.15625 0.078125 17.257812 0.671875 14.875 0.671875 Z M 20.4375 -10.71875 C 21.882812 -10.71875 22.828125 -11.421875 23.265625 -12.828125 C 23.710938 -14.242188 23.9375 -16.144531 23.9375 -18.53125 L 23.9375 -43.96875 C 23.9375 -45.738281 23.6875 -47.234375 23.1875 -48.453125 C 22.6875 -49.671875 21.800781 -50.28125 20.53125 -50.28125 C 19.082031 -50.28125 18.125 -49.710938 17.65625 -48.578125 C 17.1875 -47.441406 16.953125 -45.90625 16.953125 -43.96875 L 16.953125 -18.359375 C 16.953125 -13.265625 18.113281 -10.71875 20.4375 -10.71875 Z M 20.4375 -10.71875 "/></g></g></g><g clip-path="url(#faf211d12a)"><g clip-path="url(#15b9d10ffe)"><path fill="#000000" d="M 272.226562 204.300781 L 291.828125 204.300781 L 291.828125 223.902344 L 272.226562 223.902344 Z M 272.226562 204.300781 " fill-opacity="1" fill-rule="nonzero"/></g></g></svg>