<svg xmlns="http://www.w3.org/2000/svg" xmlns:xlink="http://www.w3.org/1999/xlink" width="500" zoomAndPan="magnify" viewBox="0 0 375 374.999991" height="500" preserveAspectRatio="xMidYMid meet" version="1.0"><defs><g/></defs><g fill="#fbfaf9" fill-opacity="1"><g transform="translate(31.344854, 229.749799)"><g><path d="M 44.40625 -2.804688 C 44.015625 -5.101562 40.820312 -6.335938 34.875 -6.503906 C 28.875 -6.671875 20.859375 -6.113281 10.710938 -4.878906 C 11.773438 -8.804688 13.0625 -13.289062 14.523438 -18.390625 C 19.625 -35.886719 22.988281 -48.21875 24.558594 -55.398438 C 26.074219 -62.519531 25.960938 -66.105469 24.167969 -66.105469 C 22.988281 -66.105469 21.53125 -65.320312 19.847656 -63.695312 C 18.109375 -62.070312 16.429688 -60.164062 14.746094 -57.863281 C 13.0625 -55.566406 11.605469 -53.265625 10.316406 -50.96875 C 9.027344 -48.667969 8.1875 -46.761719 7.792969 -45.25 C 7.511719 -44.183594 7.457031 -43.285156 7.683594 -42.558594 C 7.851562 -41.828125 8.464844 -41.4375 9.417969 -41.4375 C 9.925781 -41.4375 10.316406 -41.605469 10.597656 -41.996094 C 10.878906 -42.390625 10.988281 -42.726562 10.933594 -43.117188 C 10.878906 -43.511719 10.542969 -43.679688 10.035156 -43.679688 C 9.925781 -43.679688 9.867188 -43.792969 9.867188 -44.015625 C 9.867188 -44.183594 9.867188 -44.40625 9.925781 -44.6875 C 9.980469 -44.914062 9.980469 -45.082031 10.035156 -45.25 C 10.652344 -47.324219 11.832031 -49.734375 13.570312 -52.480469 C 15.308594 -55.230469 17.15625 -57.753906 19.007812 -59.9375 C 20.859375 -62.125 22.316406 -63.414062 23.269531 -63.808594 C 23.550781 -62.238281 22.988281 -58.59375 21.644531 -52.929688 C 20.296875 -47.265625 18.726562 -41.269531 16.988281 -34.933594 C 15.25 -28.597656 13.847656 -23.773438 12.839844 -20.355469 C 12.617188 -19.570312 12.449219 -18.953125 12.28125 -18.445312 C 10.765625 -13.234375 9.476562 -8.578125 8.355469 -4.597656 C 6.222656 -4.375 4.429688 -4.148438 3.027344 -3.980469 C 2.523438 -3.925781 1.960938 -3.8125 1.402344 -3.757812 C 0.898438 -3.699219 0.5625 -3.476562 0.335938 -3.082031 C 0.113281 -2.691406 0.0546875 -2.300781 0.167969 -1.960938 C 0.28125 -1.625 0.617188 -1.457031 1.121094 -1.515625 C 3.867188 -1.851562 6.113281 -2.128906 7.792969 -2.355469 C 7.792969 -1.960938 7.960938 -1.683594 8.296875 -1.570312 C 8.636719 -1.457031 8.972656 -1.515625 9.363281 -1.683594 C 9.699219 -1.851562 9.925781 -2.1875 10.09375 -2.636719 C 15.753906 -3.363281 21.476562 -3.867188 27.363281 -4.148438 C 29.996094 -4.261719 32.242188 -4.261719 34.035156 -4.207031 C 35.773438 -4.148438 37.230469 -4.035156 38.296875 -3.867188 C 39.363281 -3.699219 40.148438 -3.476562 40.707031 -3.253906 C 41.210938 -2.972656 41.605469 -2.746094 41.773438 -2.523438 C 41.941406 -2.300781 42.054688 -2.128906 42.054688 -2.019531 C 42.109375 -1.570312 42.390625 -1.34375 42.78125 -1.289062 C 43.175781 -1.234375 43.511719 -1.402344 43.902344 -1.683594 C 44.296875 -1.960938 44.464844 -2.355469 44.40625 -2.804688 Z M 44.40625 -2.804688 "/></g></g></g><g fill="#fbfaf9" fill-opacity="1"><g transform="translate(59.206423, 229.749799)"><g><path d="M 22.09375 -27.699219 C 18.222656 -24.167969 15.082031 -22.484375 12.726562 -22.707031 C 11.4375 -22.875 10.765625 -23.492188 10.710938 -24.503906 C 10.652344 -25.511719 10.820312 -26.691406 11.214844 -27.980469 C 11.269531 -28.257812 11.328125 -28.484375 11.382812 -28.765625 C 11.496094 -29.269531 11.4375 -29.605469 11.15625 -29.773438 C 10.878906 -29.941406 10.542969 -29.941406 10.148438 -29.886719 C 9.757812 -29.773438 9.476562 -29.492188 9.195312 -29.042969 C 6.898438 -24.78125 4.820312 -22.652344 2.859375 -22.652344 C 2.242188 -22.652344 1.851562 -22.988281 1.738281 -23.660156 C 1.625 -24.335938 1.683594 -25.121094 1.90625 -26.015625 C 2.128906 -26.914062 2.410156 -27.753906 2.691406 -28.484375 C 2.859375 -28.988281 2.859375 -29.324219 2.578125 -29.550781 C 2.300781 -29.773438 1.90625 -29.828125 1.515625 -29.71875 C 1.121094 -29.605469 0.785156 -29.324219 0.5625 -28.820312 C -0.0546875 -27.417969 -0.390625 -26.128906 -0.5625 -24.839844 C -0.730469 -23.550781 -0.5625 -22.539062 -0.167969 -21.699219 C 0.222656 -20.859375 1.066406 -20.410156 2.300781 -20.410156 C 2.804688 -20.410156 3.644531 -20.632812 4.710938 -21.027344 C 5.773438 -21.417969 7.007812 -22.429688 8.355469 -23.941406 C 8.410156 -22.707031 8.859375 -21.8125 9.589844 -21.25 C 10.316406 -20.691406 11.328125 -20.410156 12.617188 -20.410156 C 15.585938 -20.410156 19.230469 -22.371094 23.4375 -26.242188 C 23.828125 -26.632812 24 -27.027344 23.941406 -27.417969 C 23.886719 -27.753906 23.660156 -27.980469 23.324219 -28.089844 C 22.933594 -28.203125 22.539062 -28.089844 22.09375 -27.699219 Z M 22.09375 -27.699219 "/></g></g></g><g fill="#fbfaf9" fill-opacity="1"><g transform="translate(80.956321, 229.749799)"><g><path d="M 22.484375 -28.035156 C 20.632812 -26.296875 19.007812 -25.007812 17.550781 -24.054688 C 16.09375 -23.101562 14.691406 -22.652344 13.34375 -22.652344 C 11.832031 -22.652344 11.101562 -23.605469 11.101562 -25.511719 C 11.046875 -27.363281 11.4375 -29.828125 12.28125 -32.855469 C 13.0625 -35.886719 14.019531 -39.191406 15.140625 -42.78125 C 16.203125 -46.089844 17.15625 -49.34375 18.054688 -52.59375 C 18.222656 -53.210938 18.109375 -53.660156 17.832031 -53.882812 C 17.550781 -54.109375 17.15625 -54.109375 16.765625 -53.882812 C 16.316406 -53.660156 15.980469 -53.210938 15.8125 -52.59375 C 15.417969 -51.304688 14.746094 -49.0625 13.679688 -45.921875 C 12.617188 -42.726562 11.328125 -39.363281 9.925781 -35.828125 C 8.523438 -32.242188 7.066406 -29.15625 5.550781 -26.578125 C 4.035156 -23.941406 2.746094 -22.652344 1.625 -22.652344 C 1.402344 -22.652344 1.289062 -22.765625 1.234375 -23.046875 C 1.175781 -23.324219 1.121094 -23.550781 1.121094 -23.828125 C 1.175781 -24.167969 1.234375 -24.613281 1.402344 -25.121094 C 1.570312 -25.625 1.738281 -26.128906 1.960938 -26.632812 C 2.128906 -27.082031 2.355469 -27.417969 2.636719 -27.585938 C 2.859375 -27.753906 3.082031 -27.699219 3.253906 -27.417969 C 3.53125 -27.027344 3.867188 -26.914062 4.261719 -27.027344 C 4.652344 -27.136719 4.992188 -27.363281 5.269531 -27.753906 C 5.550781 -28.089844 5.550781 -28.484375 5.382812 -28.875 C 4.652344 -29.996094 3.8125 -30.390625 2.804688 -30.054688 C 1.738281 -29.71875 0.839844 -28.933594 0.0546875 -27.644531 C -0.730469 -26.351562 -1.175781 -24.839844 -1.234375 -23.214844 C -1.175781 -21.363281 -0.449219 -20.410156 1.007812 -20.410156 C 2.410156 -20.410156 3.757812 -21.195312 5.160156 -22.765625 C 6.503906 -24.335938 7.792969 -26.351562 9.082031 -28.875 C 8.804688 -27.472656 8.691406 -26.128906 8.746094 -24.839844 C 8.804688 -23.550781 9.082031 -22.484375 9.699219 -21.644531 C 10.316406 -20.800781 11.328125 -20.410156 12.726562 -20.410156 C 14.746094 -20.410156 16.710938 -21.027344 18.558594 -22.316406 C 20.410156 -23.550781 22.203125 -24.953125 23.886719 -26.578125 C 24.277344 -26.96875 24.390625 -27.363281 24.335938 -27.753906 C 24.277344 -28.089844 24.054688 -28.316406 23.660156 -28.429688 C 23.269531 -28.539062 22.875 -28.429688 22.484375 -28.035156 Z M 22.484375 -28.035156 "/></g></g></g><g fill="#fbfaf9" fill-opacity="1"><g transform="translate(103.26692, 229.749799)"><g><path d="M 6.28125 -25.457031 C 5.71875 -25.679688 5.382812 -25.960938 5.214844 -26.351562 C 5.046875 -26.746094 4.992188 -27.082031 5.160156 -27.417969 C 5.328125 -27.8125 5.550781 -28.035156 5.832031 -28.035156 C 6.113281 -28.035156 6.28125 -27.8125 6.449219 -27.417969 C 6.558594 -26.96875 6.503906 -26.296875 6.28125 -25.457031 Z M 17.4375 -27.8125 C 14.523438 -25.792969 11.496094 -24.894531 8.410156 -25.0625 C 9.027344 -27.136719 9.027344 -28.539062 8.296875 -29.382812 C 7.570312 -30.222656 6.617188 -30.445312 5.496094 -30.164062 C 4.375 -29.886719 3.53125 -29.042969 2.972656 -27.644531 C 2.636719 -26.800781 2.636719 -25.960938 2.914062 -25.175781 C 3.195312 -24.335938 3.925781 -23.71875 5.046875 -23.324219 C 4.542969 -22.820312 3.925781 -22.539062 3.253906 -22.539062 C 2.1875 -22.539062 1.683594 -23.046875 1.625 -24 C 1.570312 -24.953125 1.792969 -26.015625 2.300781 -27.082031 C 2.46875 -27.585938 2.46875 -27.980469 2.1875 -28.203125 C 1.90625 -28.429688 1.570312 -28.484375 1.175781 -28.429688 C 0.785156 -28.316406 0.449219 -28.035156 0.167969 -27.53125 C -0.785156 -25.230469 -1.007812 -23.4375 -0.390625 -22.148438 C 0.222656 -20.859375 1.234375 -20.242188 2.636719 -20.242188 C 4.316406 -20.242188 5.886719 -21.136719 7.289062 -22.875 C 8.972656 -22.707031 10.820312 -22.875 12.894531 -23.382812 C 14.914062 -23.886719 16.820312 -24.839844 18.617188 -26.183594 C 19.007812 -26.578125 19.230469 -26.914062 19.175781 -27.304688 C 19.121094 -27.699219 18.953125 -27.921875 18.617188 -28.089844 C 18.277344 -28.257812 17.886719 -28.148438 17.4375 -27.8125 Z M 17.4375 -27.8125 "/></g></g></g><g fill="#fbfaf9" fill-opacity="1"><g transform="translate(120.475125, 229.749799)"><g><path d="M 20.859375 -27.980469 C 18 -26.015625 15.195312 -25.0625 12.335938 -25.0625 C 11.269531 -25.0625 10.597656 -25.34375 10.261719 -25.847656 C 9.980469 -26.242188 9.925781 -26.746094 10.035156 -27.304688 C 10.09375 -27.867188 10.203125 -28.316406 10.316406 -28.652344 C 10.375 -28.765625 10.375 -28.820312 10.375 -28.875 C 10.484375 -29.4375 10.375 -29.773438 10.09375 -29.941406 C 9.757812 -30.109375 9.363281 -30.054688 8.972656 -29.886719 C 8.578125 -29.71875 8.296875 -29.382812 8.128906 -28.933594 C 7.851562 -27.921875 7.402344 -26.914062 6.785156 -25.960938 C 6.167969 -25.007812 5.496094 -24.167969 4.820312 -23.550781 C 4.148438 -22.875 3.644531 -22.539062 3.253906 -22.539062 C 2.804688 -22.539062 2.46875 -22.875 2.300781 -23.605469 C 2.128906 -24.277344 2.074219 -25.0625 2.128906 -26.015625 C 2.1875 -26.96875 2.300781 -27.867188 2.578125 -28.707031 C 2.746094 -29.210938 2.636719 -29.605469 2.355469 -29.828125 C 2.074219 -29.996094 1.738281 -30.054688 1.34375 -29.941406 C 0.953125 -29.773438 0.617188 -29.492188 0.390625 -28.988281 C -0.0546875 -27.8125 -0.28125 -26.578125 -0.335938 -25.289062 C -0.390625 -23.941406 -0.167969 -22.765625 0.28125 -21.753906 C 0.730469 -20.746094 1.515625 -20.242188 2.636719 -20.242188 C 3.53125 -20.242188 4.484375 -20.632812 5.4375 -21.476562 C 6.390625 -22.261719 7.289062 -23.214844 8.128906 -24.390625 L 8.1875 -24.335938 L 8.1875 -24.277344 C 8.859375 -23.324219 10.035156 -22.820312 11.71875 -22.820312 C 15.027344 -22.820312 18.390625 -23.941406 21.8125 -26.242188 C 22.316406 -26.578125 22.539062 -26.96875 22.539062 -27.363281 C 22.539062 -27.753906 22.371094 -28.035156 22.09375 -28.203125 C 21.753906 -28.371094 21.363281 -28.257812 20.859375 -27.980469 Z M 20.859375 -27.980469 "/></g></g></g><g fill="#fbfaf9" fill-opacity="1"><g transform="translate(140.935415, 229.749799)"><g><path d="M 2.242188 -31.398438 L 2.128906 -31.398438 C 1.851562 -31.457031 1.625 -31.566406 1.515625 -31.847656 C 1.34375 -32.074219 1.34375 -32.351562 1.457031 -32.632812 C 1.515625 -32.855469 1.570312 -33.082031 1.625 -33.25 L 1.683594 -33.25 C 1.792969 -33.699219 1.960938 -34.203125 2.242188 -34.707031 C 2.410156 -34.988281 2.636719 -35.269531 2.914062 -35.4375 C 3.195312 -35.605469 3.476562 -35.660156 3.757812 -35.605469 C 4.035156 -35.546875 4.261719 -35.378906 4.375 -35.15625 C 4.484375 -34.875 4.484375 -34.59375 4.316406 -34.316406 L 3.867188 -33.082031 L 3.644531 -32.410156 C 3.53125 -32.128906 3.363281 -31.847656 3.082031 -31.679688 C 2.804688 -31.511719 2.523438 -31.398438 2.242188 -31.398438 Z M 13.234375 -27.699219 C 9.363281 -24.167969 6.222656 -22.484375 3.867188 -22.707031 C 2.691406 -22.875 2.019531 -23.4375 1.90625 -24.503906 C 1.792969 -25.566406 1.960938 -26.859375 2.46875 -28.429688 C 2.578125 -29.042969 2.46875 -29.4375 2.1875 -29.605469 C 1.90625 -29.773438 1.515625 -29.773438 1.121094 -29.605469 C 0.671875 -29.4375 0.335938 -29.042969 0.167969 -28.429688 C -0.28125 -26.914062 -0.503906 -25.511719 -0.503906 -24.335938 C -0.503906 -23.15625 -0.167969 -22.203125 0.449219 -21.476562 C 1.066406 -20.746094 2.1875 -20.410156 3.757812 -20.410156 C 6.726562 -20.410156 10.375 -22.371094 14.578125 -26.242188 C 14.972656 -26.632812 15.140625 -27.027344 15.082031 -27.417969 C 15.027344 -27.753906 14.800781 -27.980469 14.464844 -28.089844 C 14.074219 -28.203125 13.679688 -28.089844 13.234375 -27.699219 Z M 13.234375 -27.699219 "/></g></g></g><g fill="#fbfaf9" fill-opacity="1"><g transform="translate(153.938339, 229.749799)"><g><path d="M 16.597656 -27.980469 C 14.523438 -26.410156 12.503906 -25.121094 10.597656 -24.167969 C 8.636719 -23.15625 6.617188 -22.652344 4.429688 -22.652344 C 3.082031 -22.652344 2.1875 -22.988281 1.738281 -23.660156 C 1.234375 -24.335938 1.175781 -25.121094 1.570312 -26.074219 C 1.851562 -26.859375 2.242188 -27.472656 2.746094 -27.867188 C 3.253906 -28.257812 3.699219 -28.539062 4.148438 -28.652344 C 4.597656 -28.765625 4.933594 -28.765625 5.101562 -28.652344 C 5.269531 -28.539062 5.269531 -28.316406 5.046875 -28.035156 C 4.652344 -27.644531 4.542969 -27.25 4.652344 -26.914062 C 4.765625 -26.578125 4.992188 -26.351562 5.382812 -26.296875 C 5.773438 -26.242188 6.167969 -26.410156 6.558594 -26.800781 C 7.90625 -28.371094 8.128906 -29.550781 7.289062 -30.335938 C 6.390625 -31.0625 5.101562 -31.175781 3.421875 -30.671875 C 1.738281 -30.109375 0.390625 -28.652344 -0.617188 -26.351562 C -1.234375 -24.726562 -1.175781 -23.324219 -0.390625 -22.148438 C 0.390625 -20.96875 1.792969 -20.410156 3.8125 -20.410156 C 6.390625 -20.410156 8.804688 -20.96875 10.988281 -22.09375 C 13.175781 -23.214844 15.417969 -24.613281 17.664062 -26.296875 C 18.109375 -26.691406 18.335938 -27.027344 18.335938 -27.417969 C 18.277344 -27.8125 18.109375 -28.089844 17.832031 -28.257812 C 17.492188 -28.429688 17.101562 -28.316406 16.597656 -27.980469 Z M 16.597656 -27.980469 "/></g></g></g><g fill="#fbfaf9" fill-opacity="1"><g transform="translate(170.417625, 229.749799)"><g/></g></g><g fill="#fbfaf9" fill-opacity="1"><g transform="translate(199.0081, 229.749799)"><g><path d="M 49.679688 -3.308594 C 49.566406 -4.261719 49.902344 -6.558594 50.632812 -10.09375 C 51.359375 -13.625 52.203125 -17.382812 53.15625 -21.417969 C 54.558594 -27.417969 55.789062 -32.96875 56.855469 -37.960938 C 57.863281 -42.949219 58.59375 -47.324219 58.984375 -50.96875 C 59.378906 -54.613281 59.324219 -57.417969 58.875 -59.433594 C 58.425781 -61.453125 57.417969 -62.460938 55.847656 -62.460938 C 53.882812 -62.460938 51.808594 -61.003906 49.679688 -58.089844 C 47.546875 -55.117188 45.304688 -51.136719 42.949219 -46.144531 C 40.539062 -41.15625 38.015625 -35.4375 35.378906 -29.101562 C 34.203125 -26.351562 33.082031 -23.71875 31.960938 -21.195312 C 30.839844 -18.671875 29.941406 -16.878906 29.269531 -15.699219 C 29.101562 -16.988281 29.210938 -19.34375 29.71875 -22.652344 C 30.222656 -25.960938 30.726562 -29.324219 31.34375 -32.800781 C 32.519531 -39.363281 33.417969 -45.191406 34.035156 -50.183594 C 34.59375 -55.171875 34.59375 -59.097656 34.089844 -61.957031 C 33.585938 -64.816406 32.183594 -66.21875 29.996094 -66.21875 C 27.8125 -66.21875 25.625 -65.042969 23.382812 -62.6875 C 21.082031 -60.277344 18.894531 -57.246094 16.765625 -53.492188 C 14.632812 -49.734375 12.617188 -45.640625 10.765625 -41.324219 C 8.914062 -36.949219 7.234375 -32.6875 5.832031 -28.539062 C 4.429688 -24.390625 3.308594 -20.746094 2.46875 -17.605469 C 2.1875 -16.539062 1.792969 -15.082031 1.402344 -13.289062 C 0.953125 -11.496094 0.617188 -9.699219 0.390625 -7.851562 C 0.113281 -6 0.113281 -4.429688 0.335938 -3.140625 C 0.5625 -1.851562 1.175781 -1.175781 2.1875 -1.175781 C 2.691406 -1.175781 3.082031 -1.34375 3.363281 -1.738281 C 3.644531 -2.074219 3.757812 -2.410156 3.699219 -2.804688 C 3.644531 -3.195312 3.363281 -3.363281 2.859375 -3.421875 C 2.691406 -3.53125 2.578125 -4.09375 2.523438 -5.160156 C 2.46875 -6.222656 2.636719 -7.90625 3.027344 -10.316406 C 3.421875 -12.671875 4.207031 -15.867188 5.382812 -19.960938 C 5.886719 -21.867188 6.785156 -24.558594 8.019531 -28.035156 C 9.195312 -31.511719 10.652344 -35.269531 12.335938 -39.363281 C 14.019531 -43.453125 15.8125 -47.324219 17.773438 -51.082031 C 19.738281 -54.78125 21.699219 -57.863281 23.71875 -60.277344 C 25.679688 -62.6875 27.585938 -63.921875 29.382812 -63.921875 C 30.671875 -63.921875 31.457031 -62.910156 31.847656 -60.835938 C 32.183594 -58.761719 32.242188 -56.125 31.960938 -52.929688 C 31.679688 -49.734375 31.289062 -46.3125 30.726562 -42.726562 C 30.164062 -39.136719 29.605469 -35.773438 29.042969 -32.578125 C 27.753906 -25.398438 27.027344 -20.355469 26.859375 -17.382812 C 26.691406 -14.410156 27.304688 -12.953125 28.707031 -12.953125 C 29.324219 -12.953125 29.996094 -13.34375 30.613281 -14.1875 C 31.230469 -14.972656 32.128906 -16.484375 33.195312 -18.785156 C 34.257812 -21.082031 35.660156 -24.390625 37.511719 -28.765625 C 38.6875 -31.566406 40.089844 -34.765625 41.660156 -38.296875 C 43.175781 -41.828125 44.800781 -45.304688 46.484375 -48.613281 C 48.109375 -51.921875 49.734375 -54.667969 51.304688 -56.855469 C 52.820312 -59.042969 54.164062 -60.164062 55.230469 -60.164062 C 56.183594 -60.164062 56.742188 -59.15625 56.910156 -57.136719 C 57.023438 -55.0625 56.855469 -52.480469 56.464844 -49.34375 C 56.070312 -46.203125 55.511719 -42.894531 54.835938 -39.472656 C 54.164062 -35.996094 53.492188 -32.746094 52.820312 -29.773438 C 52.144531 -26.800781 51.640625 -24.445312 51.25 -22.765625 C 51.082031 -22.148438 50.96875 -21.699219 50.910156 -21.308594 C 49.621094 -15.8125 48.667969 -11.605469 48.109375 -8.691406 C 47.492188 -5.71875 47.265625 -3.757812 47.378906 -2.746094 C 47.4375 -1.683594 47.882812 -1.175781 48.613281 -1.175781 C 49.003906 -1.175781 49.34375 -1.34375 49.621094 -1.625 C 49.902344 -1.90625 50.015625 -2.1875 50.070312 -2.523438 C 50.128906 -2.859375 49.957031 -3.140625 49.679688 -3.308594 Z M 49.679688 -3.308594 "/></g></g></g><g fill="#fbfaf9" fill-opacity="1"><g transform="translate(258.437253, 229.749799)"><g><path d="M 19.289062 -27.699219 C 15.363281 -24.167969 12.222656 -22.484375 9.867188 -22.707031 C 8.523438 -22.875 7.851562 -23.550781 7.851562 -24.671875 C 7.792969 -25.738281 8.019531 -27.027344 8.464844 -28.429688 L 8.578125 -28.765625 C 8.636719 -29.269531 8.578125 -29.605469 8.296875 -29.773438 C 8.019531 -29.941406 7.683594 -29.941406 7.289062 -29.828125 C 6.898438 -29.71875 6.617188 -29.4375 6.390625 -28.988281 C 5.4375 -27.25 4.597656 -25.90625 3.925781 -25.007812 C 3.253906 -24.054688 2.746094 -23.4375 2.355469 -23.15625 C 1.960938 -22.820312 1.683594 -22.652344 1.570312 -22.652344 C 1.515625 -22.652344 1.402344 -22.652344 1.34375 -22.707031 C 1.234375 -22.707031 1.121094 -22.765625 1.066406 -22.875 C 1.007812 -22.988281 0.953125 -23.15625 0.953125 -23.4375 C 0.953125 -24 1.121094 -24.613281 1.457031 -25.34375 C 1.738281 -26.015625 2.074219 -26.578125 2.46875 -27.027344 C 2.859375 -27.472656 3.140625 -27.585938 3.421875 -27.363281 C 3.699219 -27.082031 4.09375 -27.027344 4.484375 -27.195312 C 4.878906 -27.363281 5.214844 -27.644531 5.4375 -28.035156 C 5.605469 -28.429688 5.605469 -28.765625 5.328125 -29.101562 C 4.484375 -29.941406 3.53125 -30.054688 2.46875 -29.492188 C 1.402344 -28.933594 0.503906 -28.035156 -0.222656 -26.746094 C -1.007812 -25.457031 -1.402344 -24.109375 -1.402344 -22.765625 C -1.289062 -21.195312 -0.503906 -20.410156 0.953125 -20.410156 C 2.355469 -20.410156 3.867188 -21.53125 5.496094 -23.71875 C 5.664062 -22.539062 6.113281 -21.699219 6.839844 -21.195312 C 7.570312 -20.691406 8.523438 -20.410156 9.757812 -20.410156 C 12.726562 -20.410156 16.371094 -22.371094 20.632812 -26.242188 C 21.027344 -26.632812 21.195312 -27.027344 21.136719 -27.417969 C 21.027344 -27.753906 20.800781 -27.980469 20.464844 -28.089844 C 20.074219 -28.203125 19.679688 -28.089844 19.289062 -27.699219 Z M 19.289062 -27.699219 "/></g></g></g><g fill="#fbfaf9" fill-opacity="1"><g transform="translate(277.495785, 229.749799)"><g><path d="M 24.78125 -27.921875 C 24.390625 -27.644531 24 -27.304688 23.605469 -27.027344 C 22.316406 -26.015625 20.96875 -25.0625 19.511719 -24.109375 C 18 -23.15625 16.710938 -22.652344 15.53125 -22.652344 C 14.800781 -22.652344 14.355469 -22.875 14.128906 -23.269531 C 13.847656 -23.660156 13.738281 -24.445312 13.738281 -25.511719 C 13.792969 -26.128906 13.738281 -26.746094 13.679688 -27.417969 C 13.570312 -28.035156 13.289062 -28.597656 12.894531 -29.042969 C 12.503906 -29.492188 11.773438 -29.71875 10.820312 -29.71875 C 9.417969 -29.71875 7.851562 -29.15625 6.222656 -28.035156 C 4.597656 -26.859375 2.914062 -25.511719 1.234375 -23.886719 C 1.515625 -24.953125 1.792969 -26.015625 2.074219 -27.027344 C 2.242188 -27.644531 2.410156 -28.148438 2.523438 -28.597656 C 2.636719 -29.101562 2.523438 -29.4375 2.242188 -29.605469 C 1.90625 -29.773438 1.515625 -29.773438 1.121094 -29.605469 C 0.730469 -29.4375 0.449219 -29.101562 0.28125 -28.597656 C 0.113281 -28.089844 -0.0546875 -27.53125 -0.222656 -26.914062 C -0.503906 -25.90625 -0.730469 -24.894531 -1.007812 -23.886719 C -1.289062 -22.875 -1.402344 -22.09375 -1.457031 -21.476562 C -1.515625 -20.746094 -1.289062 -20.355469 -0.785156 -20.183594 C -0.335938 -20.015625 0.28125 -20.242188 1.007812 -20.914062 C 2.691406 -22.539062 4.375 -24.054688 6.054688 -25.457031 C 7.683594 -26.800781 9.082031 -27.472656 10.203125 -27.472656 C 10.710938 -27.472656 11.046875 -27.304688 11.214844 -26.96875 C 11.382812 -26.578125 11.4375 -25.90625 11.4375 -24.894531 C 11.382812 -24.277344 11.4375 -23.605469 11.550781 -22.933594 C 11.664062 -22.203125 11.941406 -21.644531 12.449219 -21.136719 C 12.953125 -20.632812 13.738281 -20.410156 14.914062 -20.410156 C 16.484375 -20.410156 18.109375 -20.96875 19.847656 -22.035156 C 21.585938 -23.101562 23.214844 -24.222656 24.726562 -25.398438 C 25.121094 -25.679688 25.457031 -25.960938 25.847656 -26.242188 C 26.296875 -26.632812 26.519531 -26.96875 26.519531 -27.363281 C 26.464844 -27.753906 26.296875 -27.980469 25.960938 -28.148438 C 25.625 -28.316406 25.230469 -28.203125 24.78125 -27.921875 Z M 24.78125 -27.921875 "/></g></g></g><g fill="#fbfaf9" fill-opacity="1"><g transform="translate(301.880991, 229.749799)"><g><path d="M -6.054688 9.925781 C -6.898438 10.542969 -7.457031 10.542969 -7.738281 9.925781 C -8.019531 9.308594 -8.128906 8.464844 -8.019531 7.402344 C -7.738281 4.878906 -6.503906 1.515625 -4.375 -2.691406 C -2.242188 -6.839844 0.617188 -10.988281 4.207031 -15.082031 C 2.804688 -9.867188 1.175781 -4.820312 -0.617188 0.0546875 C -2.46875 4.933594 -4.261719 8.242188 -6.054688 9.925781 Z M 20.632812 -28.371094 C 16.148438 -27.082031 12 -24.839844 8.242188 -21.753906 C 8.691406 -23.382812 9.027344 -24.78125 9.308594 -25.90625 C 9.589844 -26.96875 9.8125 -27.8125 9.980469 -28.429688 C 10.09375 -29.15625 9.925781 -29.550781 9.417969 -29.71875 C 8.914062 -29.828125 8.464844 -29.660156 7.960938 -29.15625 C 7.792969 -28.933594 7.570312 -28.707031 7.34375 -28.429688 C 6.335938 -27.25 5.160156 -25.960938 3.867188 -24.558594 C 2.523438 -23.15625 1.515625 -22.484375 0.839844 -22.484375 C 0.785156 -22.484375 0.730469 -22.484375 0.671875 -22.484375 C 0.617188 -22.484375 0.617188 -22.539062 0.5625 -22.597656 C 0.503906 -22.652344 0.449219 -22.765625 0.449219 -22.933594 C 0.449219 -23.550781 0.617188 -24.222656 0.953125 -25.007812 C 1.289062 -25.738281 1.683594 -26.351562 2.1875 -26.859375 C 2.691406 -27.363281 3.082031 -27.472656 3.476562 -27.195312 C 3.8125 -26.914062 4.207031 -26.914062 4.597656 -27.136719 C 4.992188 -27.304688 5.269531 -27.644531 5.4375 -28.035156 C 5.605469 -28.429688 5.550781 -28.765625 5.214844 -29.101562 C 4.261719 -29.828125 3.195312 -29.941406 2.074219 -29.324219 C 0.953125 -28.707031 0 -27.753906 -0.730469 -26.410156 C -1.515625 -25.0625 -1.90625 -23.660156 -1.90625 -22.261719 C -1.738281 -20.859375 -1.066406 -20.183594 0.222656 -20.183594 C 1.289062 -20.183594 2.355469 -20.632812 3.476562 -21.585938 C 4.597656 -22.484375 5.664062 -23.550781 6.726562 -24.78125 C 6.335938 -23.214844 5.886719 -21.308594 5.269531 -19.0625 C 0.730469 -14.578125 -2.859375 -9.8125 -5.605469 -4.820312 C -8.355469 0.167969 -9.980469 4.375 -10.375 7.792969 C -10.542969 10.375 -10.035156 11.886719 -8.804688 12.390625 C -7.570312 12.894531 -6.28125 12.558594 -4.878906 11.496094 C -2.691406 9.589844 -0.5625 5.945312 1.515625 0.503906 C 3.53125 -4.878906 5.496094 -11.15625 7.34375 -18.277344 C 11.328125 -22.035156 15.753906 -24.726562 20.746094 -26.242188 C 21.25 -26.410156 21.585938 -26.746094 21.753906 -27.136719 C 21.921875 -27.53125 21.867188 -27.867188 21.699219 -28.148438 C 21.53125 -28.429688 21.136719 -28.539062 20.632812 -28.371094 Z M 20.632812 -28.371094 "/></g></g></g><g fill="#fbfaf9" fill-opacity="1"><g transform="translate(322.060929, 229.749799)"><g><path d="M 19.289062 -27.699219 C 15.363281 -24.167969 12.222656 -22.484375 9.867188 -22.707031 C 8.523438 -22.875 7.851562 -23.550781 7.851562 -24.671875 C 7.792969 -25.738281 8.019531 -27.027344 8.464844 -28.429688 L 8.578125 -28.765625 C 8.636719 -29.269531 8.578125 -29.605469 8.296875 -29.773438 C 8.019531 -29.941406 7.683594 -29.941406 7.289062 -29.828125 C 6.898438 -29.71875 6.617188 -29.4375 6.390625 -28.988281 C 5.4375 -27.25 4.597656 -25.90625 3.925781 -25.007812 C 3.253906 -24.054688 2.746094 -23.4375 2.355469 -23.15625 C 1.960938 -22.820312 1.683594 -22.652344 1.570312 -22.652344 C 1.515625 -22.652344 1.402344 -22.652344 1.34375 -22.707031 C 1.234375 -22.707031 1.121094 -22.765625 1.066406 -22.875 C 1.007812 -22.988281 0.953125 -23.15625 0.953125 -23.4375 C 0.953125 -24 1.121094 -24.613281 1.457031 -25.34375 C 1.738281 -26.015625 2.074219 -26.578125 2.46875 -27.027344 C 2.859375 -27.472656 3.140625 -27.585938 3.421875 -27.363281 C 3.699219 -27.082031 4.09375 -27.027344 4.484375 -27.195312 C 4.878906 -27.363281 5.214844 -27.644531 5.4375 -28.035156 C 5.605469 -28.429688 5.605469 -28.765625 5.328125 -29.101562 C 4.484375 -29.941406 3.53125 -30.054688 2.46875 -29.492188 C 1.402344 -28.933594 0.503906 -28.035156 -0.222656 -26.746094 C -1.007812 -25.457031 -1.402344 -24.109375 -1.402344 -22.765625 C -1.289062 -21.195312 -0.503906 -20.410156 0.953125 -20.410156 C 2.355469 -20.410156 3.867188 -21.53125 5.496094 -23.71875 C 5.664062 -22.539062 6.113281 -21.699219 6.839844 -21.195312 C 7.570312 -20.691406 8.523438 -20.410156 9.757812 -20.410156 C 12.726562 -20.410156 16.371094 -22.371094 20.632812 -26.242188 C 21.027344 -26.632812 21.195312 -27.027344 21.136719 -27.417969 C 21.027344 -27.753906 20.800781 -27.980469 20.464844 -28.089844 C 20.074219 -28.203125 19.679688 -28.089844 19.289062 -27.699219 Z M 19.289062 -27.699219 "/></g></g></g></svg>